<svg width="541" height="814" viewBox="0 0 541 814" fill="none" xmlns="http://www.w3.org/2000/svg">
<path opacity="0.5" fill-rule="evenodd" clip-rule="evenodd" d="M1410.57 656.363L1408.74 659.518C1389.58 692.054 1364.78 720.568 1335.23 744.815C1304.29 770.169 1269.65 788.796 1232.37 800.166C1147.88 826.342 1056.27 813.61 967.216 762.96C780.976 657.341 562.572 714.487 386.433 760.573L384.841 760.99C305.528 782.127 230.43 801.874 170.336 803.512C103.587 805.514 60.486 785.602 34.6112 740.449C7.69258 693.164 -3.38659 635.519 2.06111 568.293C6.04992 514.758 20.5754 455.45 44.9752 391.517C84.3413 288.483 137.528 207.51 143.554 198.336C143.887 197.829 144.076 197.541 144.111 197.481C184.413 145.407 229.009 102.313 276.336 69.5924C320.586 38.9194 368.608 16.1609 419.004 2.42271L419.005 2.4224C422.155 1.56389 425.304 0.70541 428.288 0.133697C327.754 25.8475 231.177 86.7368 144.964 197.974C144.916 198.056 144.687 198.408 144.289 199.018C137.728 209.093 85.273 289.634 45.9939 391.723C7.50227 491.884 -25.3697 633.536 35.5111 740.204C60.9828 784.741 103.918 804.941 170.383 802.774C230.642 800.849 305.575 781.389 384.722 760.539C473.32 737.112 573.735 710.947 673.382 703.844C782.008 696.227 874.113 713.094 954.42 755.217C775.625 655.102 566.164 710.11 397.473 754.41L396.893 754.562L392.867 755.609L389.928 756.374L389.927 756.374L389.926 756.374C316.226 775.544 246.732 793.619 190.607 795.328C126.392 796.881 84.878 777.503 60.047 734.482C34.3378 689.043 23.568 633.489 28.8283 569.214C32.8422 517.606 46.7772 460.634 70.1365 399.16C108.361 299.756 159.745 221.17 164.842 213.375C165.089 212.998 165.227 212.786 165.25 212.746C203.944 162.802 246.812 121.388 292.292 89.896C334.695 60.4515 381.036 38.6347 429.348 25.2231C446.447 20.5619 463.783 16.8027 481.642 14.1098C369.542 31.6166 261.31 90.366 166.103 213.239C166.056 213.322 165.829 213.671 165.436 214.275C159.047 224.102 108.755 301.451 71.1552 399.366C34.2477 495.47 2.60357 631.711 61.1125 733.95C85.6592 776.806 126.889 796.021 190.535 794.139C248.425 792.376 320.373 773.488 396.371 753.496C481.369 731.051 577.9 705.703 673.829 699.13C773.533 692.299 858.85 706.621 933.434 743.072C764.001 654.401 567.356 706.127 408.661 747.97C335.363 767.226 266.564 785.256 210.877 787.143C149.149 788.985 109.342 770.591 85.8857 729.13C60.9359 685.659 50.7599 632.359 55.7141 570.585C59.5874 521.19 73.0975 466.268 95.5351 407.704C132.223 312.237 181.277 237.112 186.224 229.535L186.225 229.534C186.468 229.162 186.604 228.953 186.628 228.912C199.647 212.176 213.091 196.484 226.947 181.848C213.426 196.254 200.249 211.709 187.409 228.216C187.331 228.352 187.026 228.83 186.513 229.636C183.766 233.953 175.04 247.669 163.039 268.455C144.326 300.868 118.045 350.329 96.3162 407.008C60.9929 499.055 30.7423 629.599 86.7138 727.696C110.335 768.87 149.859 787.099 210.852 785.216C264.629 783.666 331.017 766.434 401.589 748.116L401.645 748.101C403.916 747.512 406.191 746.921 408.47 746.33L413.386 745.048C493.842 724.061 584.192 700.492 674.441 694.129C771.302 687.408 853.502 701.684 925.758 737.337C762.931 650.365 573.228 700.189 420.476 740.641C418.178 741.235 415.884 741.829 413.595 742.422C346.156 759.888 282.484 776.379 231.076 777.77C172.001 779.613 134.065 761.918 111.25 721.974C87.5093 680.348 77.6428 629.14 82.2907 569.866C86.0235 522.685 98.6587 469.935 120.506 413.707C155.763 321.762 203.488 249.341 207.58 243.131L207.731 242.902C207.766 242.848 207.794 242.805 207.816 242.773C207.841 242.734 207.856 242.71 207.861 242.702C276.87 154.04 358.526 96.0097 450.201 70.5355C529.112 48.7828 618.034 50.4036 714.601 75.5603C891.364 121.394 1062.3 235.765 1187.29 319.399C1191.25 322.029 1195.19 324.64 1199.09 327.227L1199.2 327.3L1199.2 327.302C1225.98 345.074 1251.03 361.701 1272.91 375.334C1320.54 405.13 1349.9 448.85 1357.3 501.696C1363.73 549.008 1352.49 600.652 1325.33 647.694L1323.68 650.562C1288.54 709.445 1232.01 754.826 1167.97 774.458C1099.81 795.463 1026.59 788.083 954.646 752.787C1130.27 846.8 1282.93 767.817 1351.25 652.713L1352.91 649.845C1391.56 582.888 1403.87 495.294 1360.55 426.828C1374.46 448.413 1383.44 472.776 1387.07 499.381C1394.19 547.472 1382.08 601.288 1353.59 650.624L1351.77 653.779C1314.98 715.531 1255.82 762.837 1189.37 783.369C1117.62 805.593 1040.47 797.214 964.903 759.891C1148.47 858.845 1307.96 776.332 1379.34 655.931L1381 653.063C1434.49 560.414 1439.56 429.483 1324.56 358.113C1300.14 342.989 1272.07 324.239 1242.2 304.282L1242.19 304.276C1238.59 301.869 1234.96 299.445 1231.31 297.007C1101.35 209.996 930.255 95.8644 752.169 40.9566C930.782 95.6622 1101.96 209.895 1229.41 294.948L1229.41 294.949L1231.64 296.433C1234.38 298.262 1237.1 300.082 1239.81 301.894L1242.52 303.702L1242.53 303.708C1272.4 323.665 1300.47 342.415 1324.89 357.539C1377.07 389.962 1408.85 437.373 1416.54 494.975C1424.2 546.059 1411.95 602.088 1382.3 653.433L1380.48 656.588C1342.2 720.921 1280.41 770.152 1211.1 791.707C1133.6 815.602 1049.79 805.533 967.942 762.61C1162.54 872.805 1332.49 786.336 1407.89 659.026L1409.71 655.87C1465.36 559.492 1470.47 423.233 1350.8 348.785C1322.29 331.178 1288.92 308.854 1253.73 285.094L1252.38 284.195C1120.91 196.451 949.682 82.1677 770.537 23.333C950.708 82.1075 1122.68 196.629 1251.96 282.723L1254.23 284.233C1259.07 287.451 1263.88 290.648 1268.65 293.815L1268.65 293.815C1298.64 313.745 1326.84 332.484 1351.29 347.924C1405.47 381.496 1438.29 431.04 1446.86 491.061C1454.38 544.358 1441.37 603.011 1410.57 656.363ZM713.244 29.9569C726.247 33.2886 739.227 36.9662 752.169 40.9566C740.423 37.3589 728.644 34.0187 716.844 30.9611C715.647 30.6213 714.447 30.2865 713.244 29.9569ZM689.267 24.2185C697.267 25.9957 705.26 27.9111 713.244 29.9569C705.287 27.7755 697.232 25.8268 689.267 24.2185ZM1298.93 367.031C1326.15 383.97 1346.34 404.37 1360.55 426.828C1345.59 403.608 1324.92 383.604 1299.05 367.482C1272.82 351.189 1242.13 330.793 1209.62 308.961C1079.11 221.757 900.375 102.502 715.794 54.4493C614.868 28.3056 522.274 26.4771 439.764 49.2111C361.1 70.8528 289.784 115.478 226.947 181.848C355.891 44.4673 516.197 2.52145 715.96 54.1624C900.257 102.051 1078.99 221.306 1209.5 308.51C1242.01 330.342 1272.7 350.738 1298.93 367.031ZM121.643 414.364C142.331 360.144 167.453 312.69 185.339 281.712C194.082 266.568 201.169 255.382 205.076 249.215C207.237 245.804 208.425 243.929 208.383 243.768C338.07 76.933 503.368 22.4465 714.058 77.1587C890.37 123.115 1061.47 237.199 1186.46 320.833L1189.39 322.777L1190.88 323.77L1195.48 326.823L1195.49 326.829C1223.16 345.209 1249.43 362.659 1272.08 376.769C1377.58 442.27 1373.05 562.419 1324.03 647.324L1322.54 649.905C1258 758.514 1115.63 833.3 950.812 749.76C1016.78 779.992 1083.83 785.735 1146.37 766.572C1207.42 747.512 1261.89 704.384 1295.25 647.918L1296.91 645.05C1322.91 600.016 1333.72 550.421 1327.1 506.061C1320.29 455.47 1292.43 413.759 1246.62 385.4C1225.85 372.41 1202.15 356.582 1176.76 339.627C1172.87 337.03 1168.95 334.407 1164.98 331.763L1163.76 330.946L1163.76 330.945C1044.52 251.403 881.47 142.636 713.268 98.8846C702.256 96.0483 691.344 93.5268 680.536 91.3209C514.574 56.58 379.192 96.3757 268.991 212.18C255.188 226.534 241.837 242.045 228.954 258.704C228.93 258.746 228.79 258.959 228.543 259.337C223.763 266.635 178.725 335.403 145.455 422.374C124.648 476.143 112.485 526.106 109.011 571.525C104.385 628.134 113.824 676.8 136.639 716.744C158.411 754.556 194.759 771.717 251.181 769.872C301.294 768.335 363.175 752.133 428.946 734.912L428.947 734.912L432.244 734.049C574.855 696.333 750.747 649.99 903.795 725.343C837.574 695.176 762.244 683.35 674.887 689.415C586.799 695.542 498.367 718.682 420.12 739.288L416.907 740.13C347.962 758.215 283.344 775.165 231.004 776.581C172.379 778.302 134.728 760.771 112.315 721.442C58.7157 627.774 87.7384 502.64 121.643 414.364ZM229.736 258.008C242.452 241.597 255.533 226.322 268.991 212.18C325.725 153.177 390.075 113.707 460.783 94.2371C527.087 75.9496 600.969 75.0806 680.536 91.3209C691.078 93.5277 701.744 96.0352 712.534 98.8431C880.452 142.43 1043.5 251.197 1162.74 330.739L1163.96 331.557C1193.63 351.747 1221.93 370.379 1245.89 385.359C1346.72 447.782 1342.23 562.602 1295.37 643.778L1293.88 646.359C1232.59 749.968 1096.8 821.278 939.649 742.136C1002.31 770.656 1066.04 776.284 1125.25 757.826C1183.44 739.789 1235.29 698.586 1267.15 644.701L1268.65 642.12C1293.49 599.094 1303.54 552.122 1297.9 508.706C1291.23 460.492 1264.58 420.627 1221.05 393.581C1197.94 379.094 1171.35 361.448 1142.94 342.366L1142.93 342.358L1142.93 342.357C1029.1 266.316 873.149 162.128 712.194 120.447C624.014 97.8382 543.05 96.223 471.339 116.013C387.479 139.115 313.091 191.78 250.307 272.945C250.282 272.988 250.144 273.198 249.901 273.571C245.279 280.638 202.564 345.952 170.828 428.993C151.228 480.016 139.489 527.93 136.157 571.135C132.002 624.957 140.847 671.368 162.453 709.467C183.134 745.884 217.942 761.773 271.829 760.377C319.588 759 378.349 743.646 440.985 727.279L444.224 726.433L444.604 726.334L444.605 726.333C580.475 690.686 747.995 646.735 893.699 718.343C830.568 689.744 758.576 678.617 675.216 684.25C591.619 689.978 507.565 712.075 433.237 731.615L431.935 731.958C365.22 749.661 301.987 765.931 251.321 767.658C195.35 769.381 159.404 752.835 137.917 715.188C86.8549 625.662 114.484 506.225 146.805 422.006C166.736 370.409 190.699 324.964 207.757 295.419C213.921 284.743 219.185 276.074 223.015 269.766C227.212 262.855 229.687 258.779 229.736 258.008ZM230.056 308.677C213.661 337.074 191.023 380.225 171.966 429.65C141.064 510.099 114.828 623.838 163.637 709.386C183.915 745.188 218.439 760.913 271.592 759.475C319.889 757.91 380.138 742.211 443.702 725.367L445.065 725.009C515.785 706.452 596.21 685.348 675.781 679.987C763.092 674.005 836.789 687.496 901.313 721.086C901.273 721.063 901.234 721.041 901.194 721.019C758.634 640.242 591.055 684.232 456.442 719.719L453.182 720.569L453.181 720.569L453.18 720.57C393.692 736.079 337.649 750.69 292.265 751.906C241.031 753.304 208.095 738.113 188.173 703.664C141.333 621.93 166.506 513.314 196.155 436.349C226.439 356.884 267.789 294.306 271.612 288.52C271.786 288.258 271.882 288.112 271.896 288.087C331.628 210.897 402.323 160.689 481.967 138.978C550.363 120.333 627.371 121.576 711.026 143.485C864.002 183.235 1012.33 282.258 1120.63 354.73C1124.7 357.425 1128.74 360.098 1132.73 362.741C1155.34 377.725 1176.49 391.743 1194.93 403.361C1236.47 429.257 1261.63 467.112 1268.15 512.948C1273.53 553.536 1263.9 598.458 1240.38 639.189L1238.89 641.771C1208.52 693.074 1159.3 732.352 1103.98 749.366C1042.79 768.334 976.698 760.492 912.136 726.957C912.241 727.016 912.345 727.075 912.45 727.134C1068.66 815.792 1205.14 746.199 1265.85 644.331L1267.34 641.75C1312.06 564.303 1316.34 455.099 1220.34 395.467C1197.52 381.144 1170.64 363.333 1142.23 344.251L1142.22 344.245C1028.4 268.203 872.44 164.013 711.934 122.21C519.938 72.5532 369.251 122.09 251.279 273.888C251.232 273.969 251.02 274.297 250.656 274.86L250.655 274.862C248.436 278.294 240.58 290.448 230.056 308.677ZM197.127 437.293C215.143 390.326 236.907 349.348 252.474 322.385C259.477 310.256 265.196 301.048 268.687 295.429L268.687 295.428L268.688 295.426C271.057 291.612 272.399 289.452 272.418 289.153C384.617 144.73 527.773 97.7293 710.198 144.92C863.174 184.669 1011.22 283.528 1119.52 356C1121.23 357.135 1122.94 358.265 1124.64 359.391C1126.82 360.833 1128.98 362.267 1131.13 363.693L1131.6 364.002C1154.22 378.989 1175.38 393.011 1193.81 404.631C1284.98 461.472 1281.19 565.225 1238.63 638.942L1237.31 641.237C1180.43 737.151 1053.24 802.531 907.093 723.15C966.208 751.937 1026.57 757.947 1082.41 740.743C1134.59 724.587 1181.46 687.398 1210.35 638.677L1211.67 636.382C1234.03 597.659 1243.52 554.95 1238.73 516.617C1232.52 472.873 1208.4 437.15 1169.14 412.567C1150.06 400.845 1127.92 386.06 1104.65 370.519L1104.37 370.335L1101.6 368.484L1098.66 366.521L1096.54 365.11C994.066 296.78 854.186 203.51 710.023 166.237C630.561 145.601 557.556 143.992 492.595 161.942C417 182.549 349.715 230.136 293.036 303.352C293.021 303.377 292.93 303.518 292.764 303.77C289.145 309.301 250.35 368.582 221.316 443.992C193.417 516.613 169.471 619.819 213.774 697.411C232.487 730.014 263.835 744.671 312.417 743.271C354.527 742.238 406.264 728.77 461.278 714.45C463.543 713.86 465.815 713.269 468.091 712.677C593.428 679.699 749.359 638.848 883.073 710.354C823.599 681.366 755.589 669.836 676.228 675.274C599.983 680.59 523.25 700.54 455.636 718.489C330.472 751.4 231.691 777.361 189.239 703.132C142.517 621.849 167.809 513.684 197.127 437.293ZM274.772 335.642C260.033 361.171 239.429 400.142 222.454 444.649C194.72 516.983 170.656 619.738 214.84 696.878C255.039 767.129 348.871 742.518 467.45 711.16C584.896 680.254 729.016 642.484 856.909 696.079C734.025 639.271 593.508 676.004 479.575 705.921C425.01 720.312 373.594 733.845 332.403 734.922C286.475 736.325 256.548 722.488 238.926 691.28C196.995 618.117 219.713 520.322 246.194 451.471C274.802 376.964 313.726 318.74 314.342 318.33C367.968 249.089 431.394 204.245 503.105 184.455C564.467 167.486 633.8 168.888 708.618 188.372C845.581 224.006 978.02 312.463 1075.07 377.281L1076.12 377.984C1100.15 394.152 1123.21 409.377 1142.78 421.443C1180.22 444.591 1202.68 478.59 1208.46 519.793C1213.35 556.65 1204.61 596.736 1183.41 633.451L1182.09 635.746C1154.69 681.886 1110.61 716.863 1060.69 732.405C1011.66 747.602 959.144 743.678 907.396 721.493C1041.14 787.294 1156.49 726.157 1208.93 637.856L1210.25 635.561C1250.49 565.859 1254.24 467.436 1167.74 413.672C1149.32 402.356 1128.27 388.315 1105.74 373.278C1102.93 371.409 1100.11 369.524 1097.26 367.627L1095.02 366.129C992.555 297.81 853.012 204.764 708.911 167.507C535.773 122.619 399.982 167.37 293.723 304.131C293.704 304.431 292.407 306.512 290.131 310.163C286.797 315.51 281.365 324.223 274.772 335.642ZM247.781 452.005C264.001 410.121 283.445 373.158 297.356 349.063C307.79 330.993 314.983 319.847 315.433 319.725C416.082 190.051 544.342 147.836 707.909 190.258C844.588 225.727 977.026 314.184 1074.07 379.002L1075.12 379.705C1081.97 384.201 1088.72 388.667 1095.31 393.034C1112.02 404.093 1127.75 414.514 1141.79 423.164C1223.61 473.85 1219.91 566.944 1181.83 632.917L1180.67 634.925C1131.06 718.324 1022.02 776.229 895.219 713.753C944.053 734.587 993.302 738.14 1039.41 723.945C1086.47 709.426 1128.09 676.087 1153.83 632.815L1154.99 630.807C1175.02 596.1 1183.34 558.064 1178.31 523.42C1172.96 484.759 1151.42 452.441 1116.26 430.607C1103.07 422.447 1088.33 412.608 1072.67 402.155L1072.67 402.154L1072.67 402.154L1072.65 402.141L1072.62 402.118L1072.59 402.099L1072.54 402.067L1072.49 402.033C1066.32 397.91 1060 393.693 1053.58 389.446C961.957 328.136 836.687 244.338 707.047 210.795C636.138 192.42 570.926 191.103 513.164 207.091C445.503 225.777 385.771 268.163 335.197 333.43C335.19 333.444 335.162 333.487 335.114 333.56C335.067 333.632 335.002 333.731 334.918 333.858C331.453 339.131 296.681 392.049 271.07 458.949C246.008 524.029 224.684 616.127 264.362 685.312C300.696 749.124 385.078 727.089 491.508 699.042C599.308 670.573 732.473 635.407 848.74 690.295C727.64 639.083 591.097 674.943 479.565 704.234L479.384 704.281C367.104 733.922 278.388 756.898 240.442 690.625C198.795 617.626 221.3 520.856 247.781 452.005ZM319.49 362.607C306.407 385.267 287.837 420.058 272.777 459.934C248.046 524.441 226.768 615.801 265.877 684.657C301.46 747 383.984 725.444 488.831 698.057L490.868 697.525C597.469 669.369 728.534 634.966 844.044 686.673C733.725 631.7 606.416 665.024 503.442 692.164L503.272 692.208C403.222 718.516 324.144 739.309 289.798 679.345C252.657 614.302 272.588 527.901 296.066 466.878C320.139 403.917 352.58 354.461 355.897 349.403C356.063 349.151 356.156 349.009 356.172 348.982C403.692 287.689 460.016 247.924 523.343 230.177C577.789 215.335 639.045 216.28 705.594 233.668C826.721 265.141 944.147 343.385 1030.03 400.609L1031.15 401.359C1032.39 402.182 1033.62 403.004 1034.85 403.822L1037.76 405.768C1056.67 418.387 1074.51 430.298 1090.02 439.935C1163.77 485.572 1160.67 569.074 1126.56 628.163L1125.4 630.171C1101.15 670.861 1062.16 702.275 1017.97 715.772C972.901 729.742 924.854 725.44 877.462 703.954C999.151 767.432 1104.61 712.197 1151.79 632.404L1152.95 630.396C1188.89 568.152 1192.09 480.509 1115.1 432.615C1096.66 421.206 1075.02 406.801 1052.42 391.454C960.798 330.144 835.528 246.346 706.172 212.967C551.892 172.847 430.997 212.813 336.288 334.825C336.335 335.005 335.247 336.732 333.289 339.841L333.288 339.842L333.288 339.842L333.287 339.843C330.349 344.508 325.451 352.281 319.49 362.607ZM298.104 467.29C312.408 430.036 329.818 397.254 342.073 376.028C349.723 362.778 355.554 353.604 357.422 350.666L357.423 350.664C357.779 350.105 357.99 349.772 358.043 349.68C446.813 235.329 560.627 197.778 705.335 235.431C825.948 267.008 943.029 345.023 1028.89 402.237L1030.16 403.08C1031.24 403.798 1032.31 404.515 1033.38 405.23L1036.77 407.489C1055.67 420.108 1073.52 432.019 1089.02 441.656C1161.35 486.472 1158.19 568.786 1124.57 627.014L1123.58 628.735C1079.98 702.367 984.097 753.518 872.587 699.156C914.722 716.687 957.21 719.426 996.857 707.025C1037.9 694.387 1074.54 665.062 1097.3 626.954L1098.3 625.233C1130.26 569.873 1133.14 491.986 1064.35 449.591C1048.19 439.495 1029.23 427.019 1009.3 413.6L1007.36 412.308L1007.36 412.308C927.079 358.703 817.804 285.739 704.876 256.583C642.52 240.469 585.101 239.445 534.255 253.305C474.859 269.497 422.229 306.805 377.761 364.124C377.311 364.246 344.918 412.473 321.393 474.234C299.499 531.2 280.796 612.19 315.849 672.968C347.944 728.958 421.63 709.631 515.389 685.038L515.541 684.998C609.94 660.176 725.788 629.722 827.318 676.496C720.503 632.543 600.862 664.073 502.848 689.909L501.622 690.231C402.972 716.163 325.065 736.642 291.645 678.116C254.907 613.689 274.791 528.026 298.104 467.29ZM317.246 671.862C264.974 580.491 333.569 442.636 365.034 388.137C371.785 376.445 376.866 368.553 378.574 365.9L378.575 365.899L378.575 365.898C378.799 365.55 378.965 365.292 379.069 365.128C379.125 365.04 379.163 364.978 379.183 364.945C462.628 257.846 568.627 222.666 704.048 258.017C817.416 287.526 927.406 360.962 1007.86 414.678L1007.9 414.706C1028.12 428.29 1047.07 440.765 1063.24 450.861C1130.73 492.887 1127.77 569.584 1096.31 624.083L1095.31 625.804C1055.62 692.718 969.428 739.762 868.619 695.228C904.705 708.182 940.983 709.521 974.964 698.975C1013.31 687.073 1047.32 659.672 1068.59 624.145L1069.59 622.424C1099.4 570.793 1102.4 497.949 1038.16 458.181C1027.1 451.517 1014.88 443.375 1001.85 434.688L1001.85 434.686L1001.82 434.672L1001.79 434.65C996.941 431.418 991.979 428.11 986.921 424.775C912.271 374.792 809.325 306.177 703.471 278.718C645.758 263.755 592.177 262.652 544.764 275.818C489.418 290.905 440.481 325.756 399.067 379.101C399.038 379.151 398.908 379.351 398.686 379.695C391.291 391.129 281.006 561.653 341.285 667.001C371.263 719.494 440.061 701.465 527.309 678.406C610.846 656.503 712.793 629.776 803.965 664.995C707.897 632.251 601.871 660.13 514.781 683.03L514.616 683.073C421.763 707.419 348.533 726.62 317.246 671.862ZM343.132 665.772C294.441 580.676 358.14 452.615 387.452 401.844C393.756 390.926 398.408 383.768 400.013 381.298C400.348 380.783 400.55 380.472 400.607 380.373C477.828 280.772 576.58 248.293 702.596 280.89C808.166 308.185 910.827 376.636 985.477 426.619C987.644 428.047 989.799 429.469 991.94 430.881L991.942 430.883C1008.25 441.642 1023.72 451.845 1037 460.189C1099.82 499.136 1097.19 570.669 1067.88 621.439L1066.89 623.16C1028.74 687.332 944.529 732.001 846.721 683.318C882.86 698.28 919.383 700.771 953.568 690.063C989.494 679.062 1021 654.037 1040.5 620.927L1041.33 619.493C1068.98 571.591 1071.49 504.199 1011.63 467.344C999.461 459.646 985.359 450.246 970.444 440.304C968.342 438.903 966.225 437.492 964.095 436.073C894.966 389.66 800.101 326.093 701.781 300.689C647.978 286.836 598.518 285.817 554.705 298.002C503.693 312.15 458.166 344.38 419.804 393.75C419.774 393.802 419.644 394.002 419.423 394.345C412.316 405.34 310.473 562.897 366.318 660.418C394.043 708.934 457.891 692.253 538.839 670.912L539.631 670.705C621.149 649.397 721.033 623.288 808.637 664.27C716.21 626.455 612.447 653.667 527.518 675.94L526.715 676.151L526.531 676.199C440.436 698.703 372.164 716.548 343.132 665.772ZM409.87 415.552C382.711 462.594 323.743 581.147 368.733 659.518C395.817 706.516 458.766 690.081 538.53 668.821C614.029 648.874 705.788 624.864 789.192 653.909C711.127 622.272 623.384 645.387 551.493 664.326L550.891 664.485L550.489 664.591C476.48 684.043 417.582 699.523 392.038 654.616C340.757 564.826 434.731 419.247 440.916 409.667C441.098 409.385 441.204 409.221 441.228 409.18C506.734 324.615 594.19 295.94 700.613 323.727C790.502 347.083 877.32 405.018 941.008 447.518L941.956 448.151C957.786 458.821 972.929 468.711 985.679 476.837C1040.87 510.614 1038.4 572.677 1013.07 616.563L1012.24 617.997C994.233 648.525 965.067 671.461 932.291 681.604C902.879 690.734 871.704 689.394 840.529 678.083C928.647 718.735 1004.07 678.193 1038.51 619.778C1066.4 572.778 1069.48 505.714 1010.92 469.229C997.037 460.447 980.472 449.736 963.385 437.958L961.231 436.524C892.132 390.524 798.219 328.003 701.641 302.903C585.197 272.772 493.525 302.837 422.079 395.064C421.974 395.245 421.68 395.726 421.215 396.484C419.478 399.32 415.359 406.045 409.87 415.552ZM394.169 653.551C352.925 581.168 406.997 472.409 432.004 429.096C437.27 419.975 441.373 413.742 442.888 411.44C443.231 410.919 443.441 410.599 443.503 410.493C509.459 325.805 593.315 298.112 700.472 325.941C789.795 348.97 876.61 406.903 940.297 449.403L941.246 450.036L942.255 450.716L943.309 451.427L945.05 452.601C959.473 462.328 973.093 471.514 984.97 478.722C1038.29 511.801 1035.92 572.388 1011.08 615.414L1010.25 616.848C977.905 670.991 907.6 708.761 825.814 669.563C896.147 696.179 955.992 662.36 983.977 615.066L984.639 613.919C1007.82 573.761 1009.96 516.864 959.937 485.304C951.975 480.449 943.201 474.6 933.85 468.366L933.842 468.362L933.839 468.36L933.837 468.358L933.833 468.355L933.826 468.351L933.793 468.329L933.761 468.308C929.306 465.338 924.72 462.281 920.029 459.203C862.063 420.382 782.009 367.279 699.657 345.74C602.356 320.542 522.43 346.68 462.699 423.87C462.674 423.913 462.57 424.075 462.391 424.351L462.387 424.358C456.49 433.501 370.957 566.111 417.805 648.075C441.098 689.007 494.604 674.993 562.32 657.256L562.706 657.155L564.328 656.735C631.616 639.289 713.965 617.939 786.259 650.36C708.328 620.835 621.52 643.463 550.297 662.23L549.893 662.336C476.785 681.542 418.789 696.779 394.169 653.551ZM454.587 442.517C431.899 481.814 382.392 581.353 420.22 647.174C442.589 686.427 495.194 672.657 562.008 655.166L562.397 655.064C625.403 638.516 701.413 618.603 770.69 641.834C706.371 616.125 634.039 635.007 574.758 650.728C515.693 666.346 464.728 679.756 443.359 642.559C400.818 568.202 478.654 447.794 483.706 439.979L483.706 439.978C483.775 439.872 483.83 439.786 483.871 439.722C483.918 439.649 483.947 439.604 483.957 439.587C538.199 369.936 610.309 346.169 698.489 368.778C773.023 388.099 845.279 436.318 898.009 471.733L899.532 472.745L902.012 474.395L902.238 474.545L902.24 474.547C913.799 482.236 924.61 489.427 934.101 495.248C979.055 523.114 977.41 574.561 956.378 610.989L955.716 612.136C930.758 654.209 878.299 684.541 816.3 663.101C889.885 696.965 953.059 662.783 981.986 613.917C1005.41 574.662 1007.95 518.379 958.731 488.05C950.767 483.193 941.99 477.343 932.635 471.107L932.633 471.105L932.632 471.105L932.628 471.102L932.621 471.097L932.609 471.089C928.137 468.108 923.533 465.039 918.823 461.949C860.857 423.128 781.253 369.902 699.186 348.527C601.6 323.165 524.824 348.445 465.092 425.635C464.311 426.331 460.383 432.477 454.587 442.517ZM445.537 640.757C411.575 581.374 456.185 491.629 476.72 456.061C480.778 449.034 483.837 444.12 485.271 441.817L485.271 441.817C485.71 441.111 485.997 440.651 486.113 440.449C609.411 281.398 789.282 401.31 896.446 473.125C897.258 473.665 898.066 474.202 898.87 474.737L900.581 475.875L900.681 475.941L900.683 475.942C912.24 483.63 923.049 490.821 932.538 496.64C976.355 523.85 974.354 573.943 953.984 609.225L953.322 610.372C927.888 653.22 873.23 683.699 809.021 657.092C861.778 672.071 905.838 645.537 927.289 609.492L927.952 608.345C946.831 575.645 948.598 529.241 907.862 504.575C905.177 502.805 902.351 500.953 899.408 499.025L899.407 499.024L899.406 499.023C892.115 494.247 884.108 489 875.751 483.358C828.378 451.8 763.752 408.752 697.203 391.364C618.475 370.771 553.895 392.001 505.263 454.564C505.243 454.598 505.157 454.73 505.011 454.957C500.243 462.34 430.855 569.775 468.961 636.305C487.911 669.81 533.926 657.75 586.692 643.849C636.049 630.804 695.656 615.14 750.311 632.014C691.044 616.937 627.549 633.546 574.531 647.413L573.927 647.571C513.512 663.557 465.696 676.108 445.537 640.757ZM499.138 469.768C480.756 501.607 440.876 581.845 471.257 634.953C489.448 666.491 531.864 655.411 585.979 641.143L587.377 640.779C638.28 627.527 699.502 611.588 755.393 630.55C704.187 608.464 646.078 623.759 598.624 636.249L598.222 636.355C551.306 648.661 511.14 659.127 493.993 629.722C460.318 571.014 521.279 476.533 525.748 469.606L525.749 469.605C525.893 469.381 525.978 469.249 525.999 469.213C568.857 414.025 625.907 395.331 695.512 413.336C754.004 428.442 810.891 466.52 852.415 494.315L852.924 494.656C857.292 497.497 861.483 500.302 865.491 502.985L865.499 502.99L865.504 502.993C871.103 506.741 876.347 510.251 881.22 513.287C917.69 535.491 916.132 576.279 899.406 605.249L898.909 606.11C879.303 638.929 838.626 662.751 790.383 646.889C850.222 675.011 901.558 647.561 925.18 607.892L925.677 607.031C943.893 575.479 945.686 531.002 906.537 506.87C897.468 501.268 886.886 494.097 875.989 486.712L875.988 486.711L875.988 486.711L875.987 486.711L874.426 485.653C778.424 421.429 618.08 314.322 507.656 456.328C507.206 456.451 503.941 461.45 499.138 469.768ZM496.574 628.535C470.059 581.865 505.042 511.422 521.272 483.311C522.95 480.404 524.431 477.948 525.59 476.025L525.591 476.023L525.592 476.02L525.593 476.02L525.593 476.02L525.593 476.019L525.593 476.019L525.593 476.019L525.594 476.018C527.291 473.203 528.298 471.532 528.227 471.264C625.1 346.114 766.277 440.394 850.865 496.883L851.15 497.073C861.458 504.173 871.364 510.657 879.73 515.869C914.613 537.538 912.698 576.973 896.184 604.919C875.564 640.008 829.964 664.145 776.98 638.902C818.728 652.208 853.793 631.807 870.649 603.18L871.145 602.32C885.553 577.365 887.068 541.906 855.716 522.658C849.916 519.003 843.491 514.74 836.501 510.102L836.495 510.099C834.776 508.958 833.022 507.795 831.236 506.612C795.19 482.359 745.826 449.652 694.795 436.252C634.476 420.549 584.792 436.994 547.708 484.807C545.271 488.372 490.02 571.591 519.998 624.084C534.64 649.648 569.252 640.624 609.565 630.114L610.274 629.929C650.653 619.141 700.205 606.053 744.061 623.841C695.119 608.282 641.551 622.297 597.343 633.936C549.978 646.364 512.512 656.094 496.574 628.535ZM543.855 496.734C529.944 520.828 499.526 582.051 522.626 622.16C536.145 646.028 568.827 637.36 609.608 626.485L609.999 626.382C646.069 616.936 688.988 605.696 729.2 615.562C693.87 603.957 654.73 614.122 622.506 622.491L622.089 622.599C587.607 631.757 558.075 639.566 545.481 617.38C521.325 575.143 562.404 509.69 568.267 500.348C568.47 500.024 568.631 499.768 568.745 499.582C568.811 499.476 568.861 499.393 568.895 499.334C641.453 405.837 746.224 475.888 808.859 517.787C814.962 521.923 820.808 525.665 825.874 528.908L825.875 528.908L825.878 528.91L825.921 528.938C827.172 529.739 828.376 530.509 829.524 531.248C856.161 548.156 855.14 578.163 842.719 599.676L842.388 600.25C828.768 623.299 800.9 640.203 767.687 631.856C812.356 652.045 850.767 631.092 868.255 601.416L868.752 600.555C882.497 576.748 883.752 543.052 854.272 524.502C848.128 520.629 841.076 515.956 833.539 510.962L833.538 510.961L833.538 510.961C832.209 510.08 830.865 509.19 829.508 508.292L829.222 508.101C756.08 459.368 633.981 378.015 550.148 485.834L543.855 496.734ZM548.062 616.193C528.709 582.072 554.231 530.643 565.989 510.277C568.401 506.099 570.349 503.155 571.092 502.032L571.093 502.032C571.268 501.767 571.376 501.604 571.407 501.549C642.191 410.47 745.706 479.413 807.203 520.656C813.594 524.986 819.702 528.885 825.096 532.328L825.101 532.331L825.139 532.355L825.243 532.422C826.238 533.057 827.209 533.677 828.152 534.281C853.248 549.917 851.871 578.571 839.829 598.772C824.751 624.262 791.645 641.766 753.313 623.458C779.653 629.509 802.726 616.531 814.127 597.318L814.458 596.744C824.56 579.247 825.253 554.405 803.569 540.739C800.411 538.915 797.053 536.685 793.447 534.29L793.446 534.29L793.446 534.29L793.444 534.289L793.443 534.288L793.441 534.286L793.438 534.285L793.434 534.282C791.2 532.799 788.872 531.252 786.436 529.7L786.424 529.692C734.95 495.384 649.265 438.274 589.869 514.884C589.792 515.017 589.616 515.297 589.355 515.713L589.354 515.715C584.548 523.368 550.869 577.007 570.751 611.698C581.091 629.907 605.674 623.447 633.857 616.006C660.338 608.998 692.827 600.534 721.911 610.382C687.935 602.287 651.711 611.816 621.377 619.893L620.755 620.054C586.285 628.972 559.26 635.964 548.062 616.193ZM573.663 609.937C558.01 582.542 578.801 540.621 588.407 523.984L588.407 523.983C590.891 519.681 592.381 517.1 592.831 516.977C650.457 442.778 734.444 498.917 784.78 532.568C791.154 536.631 796.96 540.365 801.913 543.607C822.056 556.002 821.054 578.753 811.614 595.103L811.283 595.676C798.413 617.312 769.477 631.967 736.326 613.209C703.585 594.681 665.8 604.41 634.98 612.346L634.894 612.368C634.268 612.529 633.645 612.69 633.025 612.849L632.088 613.089L631.361 613.274C604.136 620.234 582.775 625.694 573.663 609.937Z" fill="url(#paint0_linear_4_352)"/>
<defs>
<linearGradient id="paint0_linear_4_352" x1="446.838" y1="997.953" x2="962.933" y2="104.05" gradientUnits="userSpaceOnUse">
<stop stop-color="#FFD110" stop-opacity="0"/>
<stop offset="0.286458" stop-color="#109BFF"/>
<stop offset="0.614583" stop-color="#FF0469"/>
<stop offset="1" stop-color="#04DA00" stop-opacity="0"/>
</linearGradient>
</defs>
</svg>
